{
  "accessors": [
    {
      "bufferView": 0,
      "componentType": 5126,
      "count": 228,
      "max": [
        0.6686058044433594,
        0.2185785174369812,
        0.056945569813251495
      ],
      "min": [
        0.46860572695732117,
        0.017155902460217476,
        -0.14305444061756134
      ],
      "name": "Scene/POSITION",
      "type": "VEC3"
    },
    {
      "bufferView": 0,
      "byteOffset": 12,
      "componentType": 5126,
      "count": 228,
      "name": "Scene/NORMAL",
      "type": "VEC3"
    },
    {
      "bufferView": 0,
      "byteOffset": 24,
      "componentType": 5126,
      "count": 228,
      "name": "Scene/TEXCOORD_0",
      "type": "VEC2"
    },
    {
      "bufferView": 0,
      "byteOffset": 32,
      "componentType": 5123,
      "count": 228,
      "name": "Scene/JOINTS_0",
      "type": "VEC4"
    },
    {
      "bufferView": 0,
      "byteOffset": 40,
      "componentType": 5126,
      "count": 228,
      "name": "Scene/WEIGHTS_0",
      "type": "VEC4"
    },
    {
      "bufferView": 1,
      "componentType": 5125,
      "count": 540,
      "name": "Scene/INDICES",
      "type": "SCALAR"
    },
    {
      "bufferView": 2,
      "componentType": 5126,
      "count": 9,
      "name": "/InverseBindMatrices",
      "type": "MAT4"
    },
    {
      "bufferView": 3,
      "componentType": 5126,
      "count": 17,
      "max": [
        0.8333333134651184
      ],
      "min": [
        0.0
      ],
      "name": "CardboardBox_20x20x10_Joint_02/Trs/Input",
      "type": "SCALAR"
    },
    {
      "bufferView": 4,
      "componentType": 5126,
      "count": 17,
      "name": "CardboardBox_20x20x10_Joint_02/translation/Output",
      "type": "VEC3"
    },
    {
      "bufferView": 5,
      "componentType": 5126,
      "count": 17,
      "name": "CardboardBox_20x20x10_Joint_02/rotation/Output",
      "type": "VEC4"
    },
    {
      "bufferView": 6,
      "componentType": 5126,
      "count": 17,
      "name": "CardboardBox_20x20x10_Joint_02/scale/Output",
      "type": "VEC3"
    },
    {
      "bufferView": 7,
      "componentType": 5126,
      "count": 16,
      "max": [
        0.8333333134651184
      ],
      "min": [
        0.0
      ],
      "name": "CardboardBox_20x20x10_joint_03/Trs/Input",
      "type": "SCALAR"
    },
    {
      "bufferView": 8,
      "componentType": 5126,
      "count": 16,
      "name": "CardboardBox_20x20x10_joint_03/translation/Output",
      "type": "VEC3"
    },
    {
      "bufferView": 9,
      "componentType": 5126,
      "count": 16,
      "name": "CardboardBox_20x20x10_joint_03/rotation/Output",
      "type": "VEC4"
    },
    {
      "bufferView": 10,
      "componentType": 5126,
      "count": 16,
      "name": "CardboardBox_20x20x10_joint_03/scale/Output",
      "type": "VEC3"
    },
    {
      "bufferView": 11,
      "componentType": 5126,
      "count": 17,
      "max": [
        0.8333333134651184
      ],
      "min": [
        0.0
      ],
      "name": "CardboardBox_20x20x10_Joint_04/Trs/Input",
      "type": "SCALAR"
    },
    {
      "bufferView": 12,
      "componentType": 5126,
      "count": 17,
      "name": "CardboardBox_20x20x10_Joint_04/translation/Output",
      "type": "VEC3"
    },
    {
      "bufferView": 13,
      "componentType": 5126,
      "count": 17,
      "name": "CardboardBox_20x20x10_Joint_04/rotation/Output",
      "type": "VEC4"
    },
    {
      "bufferView": 14,
      "componentType": 5126,
      "count": 17,
      "name": "CardboardBox_20x20x10_Joint_04/scale/Output",
      "type": "VEC3"
    },
    {
      "bufferView": 15,
      "componentType": 5126,
      "count": 16,
      "max": [
        0.8333333134651184
      ],
      "min": [
        0.0
      ],
      "name": "CardboardBox_20x20x10_Joint_05/Trs/Input",
      "type": "SCALAR"
    },
    {
      "bufferView": 16,
      "componentType": 5126,
      "count": 16,
      "name": "CardboardBox_20x20x10_Joint_05/translation/Output",
      "type": "VEC3"
    },
    {
      "bufferView": 17,
      "componentType": 5126,
      "count": 16,
      "name": "CardboardBox_20x20x10_Joint_05/rotation/Output",
      "type": "VEC4"
    },
    {
      "bufferView": 18,
      "componentType": 5126,
      "count": 16,
      "name": "CardboardBox_20x20x10_Joint_05/scale/Output",
      "type": "VEC3"
    },
    {
      "bufferView": 19,
      "componentType": 5126,
      "count": 17,
      "max": [
        0.875
      ],
      "min": [
        0.0
      ],
      "name": "CardboardBox_20x20x10_Joint_02/Trs/Input",
      "type": "SCALAR"
    },
    {
      "bufferView": 20,
      "componentType": 5126,
      "count": 17,
      "name": "CardboardBox_20x20x10_Joint_02/translation/Output",
      "type": "VEC3"
    },
    {
      "bufferView": 21,
      "componentType": 5126,
      "count": 17,
      "name": "CardboardBox_20x20x10_Joint_02/rotation/Output",
      "type": "VEC4"
    },
    {
      "bufferView": 22,
      "componentType": 5126,
      "count": 17,
      "name": "CardboardBox_20x20x10_Joint_02/scale/Output",
      "type": "VEC3"
    },
    {
      "bufferView": 23,
      "componentType": 5126,
      "count": 21,
      "max": [
        0.875
      ],
      "min": [
        0.0
      ],
      "name": "CardboardBox_20x20x10_joint_03/Trs/Input",
      "type": "SCALAR"
    },
    {
      "bufferView": 24,
      "componentType": 5126,
      "count": 21,
      "name": "CardboardBox_20x20x10_joint_03/translation/Output",
      "type": "VEC3"
    },
    {
      "bufferView": 25,
      "componentType": 5126,
      "count": 21,
      "name": "CardboardBox_20x20x10_joint_03/rotation/Output",
      "type": "VEC4"
    },
    {
      "bufferView": 26,
      "componentType": 5126,
      "count": 21,
      "name": "CardboardBox_20x20x10_joint_03/scale/Output",
      "type": "VEC3"
    },
    {
      "bufferView": 27,
      "componentType": 5126,
      "count": 17,
      "max": [
        0.875
      ],
      "min": [
        0.0
      ],
      "name": "CardboardBox_20x20x10_Joint_04/Trs/Input",
      "type": "SCALAR"
    },
    {
      "bufferView": 28,
      "componentType": 5126,
      "count": 17,
      "name": "CardboardBox_20x20x10_Joint_04/translation/Output",
      "type": "VEC3"
    },
    {
      "bufferView": 29,
      "componentType": 5126,
      "count": 17,
      "name": "CardboardBox_20x20x10_Joint_04/rotation/Output",
      "type": "VEC4"
    },
    {
      "bufferView": 30,
      "componentType": 5126,
      "count": 17,
      "name": "CardboardBox_20x20x10_Joint_04/scale/Output",
      "type": "VEC3"
    },
    {
      "bufferView": 31,
      "componentType": 5126,
      "count": 21,
      "max": [
        0.875
      ],
      "min": [
        0.0
      ],
      "name": "CardboardBox_20x20x10_Joint_05/Trs/Input",
      "type": "SCALAR"
    },
    {
      "bufferView": 32,
      "componentType": 5126,
      "count": 21,
      "name": "CardboardBox_20x20x10_Joint_05/translation/Output",
      "type": "VEC3"
    },
    {
      "bufferView": 33,
      "componentType": 5126,
      "count": 21,
      "name": "CardboardBox_20x20x10_Joint_05/rotation/Output",
      "type": "VEC4"
    },
    {
      "bufferView": 34,
      "componentType": 5126,
      "count": 21,
      "name": "CardboardBox_20x20x10_Joint_05/scale/Output",
      "type": "VEC3"
    }
  ],
  "animations": [
    {
      "channels": [
        {
          "sampler": 0,
          "target": {
            "node": 4,
            "path": "translation"
          }
        },
        {
          "sampler": 1,
          "target": {
            "node": 4,
            "path": "rotation"
          }
        },
        {
          "sampler": 2,
          "target": {
            "node": 4,
            "path": "scale"
          }
        },
        {
          "sampler": 3,
          "target": {
            "node": 6,
            "path": "translation"
          }
        },
        {
          "sampler": 4,
          "target": {
            "node": 6,
            "path": "rotation"
          }
        },
        {
          "sampler": 5,
          "target": {
            "node": 6,
            "path": "scale"
          }
        },
        {
          "sampler": 6,
          "target": {
            "node": 8,
            "path": "translation"
          }
        },
        {
          "sampler": 7,
          "target": {
            "node": 8,
            "path": "rotation"
          }
        },
        {
          "sampler": 8,
          "target": {
            "node": 8,
            "path": "scale"
          }
        },
        {
          "sampler": 9,
          "target": {
            "node": 10,
            "path": "translation"
          }
        },
        {
          "sampler": 10,
          "target": {
            "node": 10,
            "path": "rotation"
          }
        },
        {
          "sampler": 11,
          "target": {
            "node": 10,
            "path": "scale"
          }
        }
      ],
      "name": "Open",
      "samplers": [
        {
          "input": 7,
          "output": 8
        },
        {
          "input": 7,
          "output": 9
        },
        {
          "input": 7,
          "output": 10
        },
        {
          "input": 11,
          "output": 12
        },
        {
          "input": 11,
          "output": 13
        },
        {
          "input": 11,
          "output": 14
        },
        {
          "input": 15,
          "output": 16
        },
        {
          "input": 15,
          "output": 17
        },
        {
          "input": 15,
          "output": 18
        },
        {
          "input": 19,
          "output": 20
        },
        {
          "input": 19,
          "output": 21
        },
        {
          "input": 19,
          "output": 22
        }
      ]
    },
    {
      "channels": [
        {
          "sampler": 0,
          "target": {
            "node": 4,
            "path": "translation"
          }
        },
        {
          "sampler": 1,
          "target": {
            "node": 4,
            "path": "rotation"
          }
        },
        {
          "sampler": 2,
          "target": {
            "node": 4,
            "path": "scale"
          }
        },
        {
          "sampler": 3,
          "target": {
            "node": 6,
            "path": "translation"
          }
        },
        {
          "sampler": 4,
          "target": {
            "node": 6,
            "path": "rotation"
          }
        },
        {
          "sampler": 5,
          "target": {
            "node": 6,
            "path": "scale"
          }
        },
        {
          "sampler": 6,
          "target": {
            "node": 8,
            "path": "translation"
          }
        },
        {
          "sampler": 7,
          "target": {
            "node": 8,
            "path": "rotation"
          }
        },
        {
          "sampler": 8,
          "target": {
            "node": 8,
            "path": "scale"
          }
        },
        {
          "sampler": 9,
          "target": {
            "node": 10,
            "path": "translation"
          }
        },
        {
          "sampler": 10,
          "target": {
            "node": 10,
            "path": "rotation"
          }
        },
        {
          "sampler": 11,
          "target": {
            "node": 10,
            "path": "scale"
          }
        }
      ],
      "name": "Close",
      "samplers": [
        {
          "input": 23,
          "output": 24
        },
        {
          "input": 23,
          "output": 25
        },
        {
          "input": 23,
          "output": 26
        },
        {
          "input": 27,
          "output": 28
        },
        {
          "input": 27,
          "output": 29
        },
        {
          "input": 27,
          "output": 30
        },
        {
          "input": 31,
          "output": 32
        },
        {
          "input": 31,
          "output": 33
        },
        {
          "input": 31,
          "output": 34
        },
        {
          "input": 35,
          "output": 36
        },
        {
          "input": 35,
          "output": 37
        },
        {
          "input": 35,
          "output": 38
        }
      ]
    }
  ],
  "asset": {
    "copyright": "Copyright (c) 2018-2020 Chukong Technologies Inc.",
    "generator": "FBX-glTF-conv",
    "version": "2.0"
  },
  "bufferViews": [
    {
      "buffer": 0,
      "byteLength": 12768,
      "byteStride": 56,
      "name": "Scene",
      "target": 34962
    },
    {
      "buffer": 0,
      "byteLength": 2160,
      "byteOffset": 12768
    },
    {
      "buffer": 0,
      "byteLength": 576,
      "byteOffset": 14928
    },
    {
      "buffer": 0,
      "byteLength": 68,
      "byteOffset": 15504
    },
    {
      "buffer": 0,
      "byteLength": 204,
      "byteOffset": 15572
    },
    {
      "buffer": 0,
      "byteLength": 272,
      "byteOffset": 15776
    },
    {
      "buffer": 0,
      "byteLength": 204,
      "byteOffset": 16048
    },
    {
      "buffer": 0,
      "byteLength": 64,
      "byteOffset": 16252
    },
    {
      "buffer": 0,
      "byteLength": 192,
      "byteOffset": 16316
    },
    {
      "buffer": 0,
      "byteLength": 256,
      "byteOffset": 16508
    },
    {
      "buffer": 0,
      "byteLength": 192,
      "byteOffset": 16764
    },
    {
      "buffer": 0,
      "byteLength": 68,
      "byteOffset": 16956
    },
    {
      "buffer": 0,
      "byteLength": 204,
      "byteOffset": 17024
    },
    {
      "buffer": 0,
      "byteLength": 272,
      "byteOffset": 17228
    },
    {
      "buffer": 0,
      "byteLength": 204,
      "byteOffset": 17500
    },
    {
      "buffer": 0,
      "byteLength": 64,
      "byteOffset": 17704
    },
    {
      "buffer": 0,
      "byteLength": 192,
      "byteOffset": 17768
    },
    {
      "buffer": 0,
      "byteLength": 256,
      "byteOffset": 17960
    },
    {
      "buffer": 0,
      "byteLength": 192,
      "byteOffset": 18216
    },
    {
      "buffer": 0,
      "byteLength": 68,
      "byteOffset": 18408
    },
    {
      "buffer": 0,
      "byteLength": 204,
      "byteOffset": 18476
    },
    {
      "buffer": 0,
      "byteLength": 272,
      "byteOffset": 18680
    },
    {
      "buffer": 0,
      "byteLength": 204,
      "byteOffset": 18952
    },
    {
      "buffer": 0,
      "byteLength": 84,
      "byteOffset": 19156
    },
    {
      "buffer": 0,
      "byteLength": 252,
      "byteOffset": 19240
    },
    {
      "buffer": 0,
      "byteLength": 336,
      "byteOffset": 19492
    },
    {
      "buffer": 0,
      "byteLength": 252,
      "byteOffset": 19828
    },
    {
      "buffer": 0,
      "byteLength": 68,
      "byteOffset": 20080
    },
    {
      "buffer": 0,
      "byteLength": 204,
      "byteOffset": 20148
    },
    {
      "buffer": 0,
      "byteLength": 272,
      "byteOffset": 20352
    },
    {
      "buffer": 0,
      "byteLength": 204,
      "byteOffset": 20624
    },
    {
      "buffer": 0,
      "byteLength": 84,
      "byteOffset": 20828
    },
    {
      "buffer": 0,
      "byteLength": 252,
      "byteOffset": 20912
    },
    {
      "buffer": 0,
      "byteLength": 336,
      "byteOffset": 21164
    },
    {
      "buffer": 0,
      "byteLength": 252,
      "byteOffset": 21500
    }
  ],
  "buffers": [
    {
      "byteLength": 21752,
      "uri": "out.bin"
    }
  ],
  "extras": {
    "FBX-glTF-conv": {
      "animationFrameRate": 24.0
    }
  },
  "images": [
    {
      "extras": {
        "FBX-glTF-conv": {
          "fileName": "C:\\Users\\PC GM\\Desktop\\Jobs\\IkamePA\\ikame_pa_test\\temp\\asset-db\\assets\\fbx.FBX-glTF-conv\\d1dbd1c9-7068-4ea5-b2d3-d7fc307c67e8\\output\\.fbm\\27F826D1\\CardboardBox_20x20x10.fbm/CardboardBox_20x20x10_Albedo.png",
          "relativeFileName": "..\\..\\..\\..\\temp\\asset-db\\assets\\fbx.FBX-glTF-conv\\d1dbd1c9-7068-4ea5-b2d3-d7fc307c67e8\\output\\.fbm\\27F826D1\\CardboardBox_20x20x10.fbm\\CardboardBox_20x20x10_Albedo.png"
        }
      },
      "name": "DiffuseColor_Texture",
      "uri": "CardboardBox_20x20x10_Albedo.png"
    }
  ],
  "materials": [
    {
      "name": "CardboardBox_20x20x10",
      "pbrMetallicRoughness": {
        "baseColorTexture": {
          "index": 0
        }
      }
    }
  ],
  "meshes": [
    {
      "name": "Scene",
      "primitives": [
        {
          "attributes": {
            "JOINTS_0": 3,
            "NORMAL": 1,
            "POSITION": 0,
            "TEXCOORD_0": 2,
            "WEIGHTS_0": 4
          },
          "indices": 5,
          "material": 0
        }
      ]
    }
  ],
  "nodes": [
    {
      "children": [
        1,
        12,
        15
      ],
      "name": "CardboardBox_20x20x10"
    },
    {
      "children": [
        2,
        3
      ],
      "name": "Animated_Model",
      "rotation": [
        0.0,
        0.707105815410614,
        0.0,
        0.7071077227592468
      ],
      "scale": [
        3.0,
        3.0,
        3.0
      ],
      "translation": [
        0.0,
        0.16699999570846558,
        0.0
      ]
    },
    {
      "mesh": 0,
      "name": "CardboardBox_20x20x10_Animated_Model",
      "skin": 0
    },
    {
      "children": [
        4,
        6,
        8,
        10
      ],
      "extras": {
        "FBX-glTF-conv": {
          "skeleton": {
            "skeletonType": "Root"
          }
        }
      },
      "name": "CardboardBox_20x20x10_Joint_01",
      "rotation": [
        -0.28734514117240906,
        -0.6460903882980347,
        0.28734514117240906,
        0.6460903882980347
      ],
      "translation": [
        0.0023209559731185436,
        -0.050571389496326447,
        -0.004315258003771305
      ]
    },
    {
      "children": [
        5
      ],
      "extras": {
        "FBX-glTF-conv": {
          "skeleton": {
            "skeletonType": "LimbNode"
          }
        }
      },
      "name": "CardboardBox_20x20x10_Joint_02",
      "rotation": [
        -0.2536712884902954,
        0.6600385308265686,
        0.2536712884902954,
        0.6600385308265686
      ],
      "translation": [
        0.14348700642585754,
        -0.008946339599788189,
        -0.0005625070189125836
      ]
    },
    {
      "extras": {
        "FBX-glTF-conv": {
          "skeleton": {
            "skeletonType": "LimbNode"
          }
        }
      },
      "name": "CardboardBox_20x20x10_Joint_06",
      "translation": [
        1.946180964296218e-05,
        0.0969812273979187,
        -1.6414660422015004e-05
      ]
    },
    {
      "children": [
        7
      ],
      "extras": {
        "FBX-glTF-conv": {
          "skeleton": {
            "skeletonType": "LimbNode"
          }
        }
      },
      "name": "CardboardBox_20x20x10_joint_03",
      "rotation": [
        -0.25367119908332825,
        0.6600385904312134,
        -0.6600385904312134,
        0.25367119908332825
      ],
      "translation": [
        0.07628606259822845,
        0.06848934292793274,
        0.1007952019572258
      ]
    },
    {
      "extras": {
        "FBX-glTF-conv": {
          "skeleton": {
            "skeletonType": "LimbNode"
          }
        }
      },
      "name": "CardboardBox_20x20x10_Joint_07",
      "translation": [
        2.2234749849303626e-05,
        0.09570997208356857,
        -2.9399570848909207e-05
      ]
    },
    {
      "children": [
        9
      ],
      "extras": {
        "FBX-glTF-conv": {
          "skeleton": {
            "skeletonType": "LimbNode"
          }
        }
      },
      "name": "CardboardBox_20x20x10_Joint_04",
      "rotation": [
        0.6600385904312134,
        0.2536712884902954,
        -0.6600385308265686,
        0.2536713182926178
      ],
      "translation": [
        0.011597700417041779,
        0.13740910589694977,
        -0.0005625070189125836
      ]
    },
    {
      "extras": {
        "FBX-glTF-conv": {
          "skeleton": {
            "skeletonType": "LimbNode"
          }
        }
      },
      "name": "CardboardBox_20x20x10_Joint_08",
      "translation": [
        -1.9135330148856156e-05,
        0.09685172885656357,
        3.023630051757209e-05
      ]
    },
    {
      "children": [
        11
      ],
      "extras": {
        "FBX-glTF-conv": {
          "skeleton": {
            "skeletonType": "LimbNode"
          }
        }
      },
      "name": "CardboardBox_20x20x10_Joint_05",
      "rotation": [
        0.6600385904312134,
        0.25367119908332825,
        0.25367119908332825,
        0.6600385904312134
      ],
      "translation": [
        0.07633227854967117,
        0.06853102892637253,
        -0.09608349949121475
      ]
    },
    {
      "extras": {
        "FBX-glTF-conv": {
          "skeleton": {
            "skeletonType": "LimbNode"
          }
        }
      },
      "name": "CardboardBox_20x20x10_Joint_09",
      "translation": [
        -1.5783030903548934e-05,
        0.09564772248268127,
        1.832272027968429e-05
      ]
    },
    {
      "children": [
        13,
        14
      ],
      "name": "Product_Icon_Canvas",
      "rotation": [
        0.7071067690849304,
        0.0,
        0.0,
        0.7071067690849304
      ],
      "scale": [
        0.8276591897010803,
        0.8276591897010803,
        0.8276591897010803
      ],
      "translation": [
        -0.17100000381469727,
        0.3319999873638153,
        -0.14499999582767487
      ]
    },
    {
      "name": "Product_Icon_BG"
    },
    {
      "name": "Product_Icon_Image",
      "rotation": [
        1.6801583833381849e-35,
        3.8481938157678447e-34,
        -0.04361940547823906,
        0.9990482330322266
      ]
    },
    {
      "name": "Products"
    }
  ],
  "samplers": [
    {}
  ],
  "scenes": [
    {
      "name": "Scene",
      "nodes": [
        0
      ]
    }
  ],
  "skins": [
    {
      "inverseBindMatrices": 6,
      "joints": [
        3,
        4,
        5,
        8,
        9,
        10,
        11,
        6,
        7
      ]
    }
  ],
  "textures": [
    {
      "name": "DiffuseColor_Texture",
      "sampler": 0,
      "source": 0
    }
  ]
}