{
  "accessors": [
    {
      "bufferView": 0,
      "componentType": 5126,
      "count": 29,
      "max": [
        0.08972382545471191,
        0.1546727418899536,
        0.09086417406797409
      ],
      "min": [
        -0.0897296741604805,
        -0.15078924596309662,
        -0.08409028500318527
      ],
      "name": "projectile_launcher_grenade/POSITION",
      "type": "VEC3"
    },
    {
      "bufferView": 0,
      "byteOffset": 12,
      "componentType": 5126,
      "count": 29,
      "name": "projectile_launcher_grenade/NORMAL",
      "type": "VEC3"
    },
    {
      "bufferView": 0,
      "byteOffset": 24,
      "componentType": 5126,
      "count": 29,
      "name": "projectile_launcher_grenade/TEXCOORD_0",
      "type": "VEC2"
    },
    {
      "bufferView": 0,
      "byteOffset": 32,
      "componentType": 5126,
      "count": 29,
      "name": "projectile_launcher_grenade/TEXCOORD_1",
      "type": "VEC2"
    },
    {
      "bufferView": 1,
      "componentType": 5125,
      "count": 120,
      "name": "projectile_launcher_grenade/INDICES",
      "type": "SCALAR"
    }
  ],
  "asset": {
    "copyright": "Copyright (c) 2018-2020 Chukong Technologies Inc.",
    "generator": "FBX-glTF-conv",
    "version": "2.0"
  },
  "bufferViews": [
    {
      "buffer": 0,
      "byteLength": 1160,
      "byteStride": 40,
      "name": "projectile_launcher_grenade",
      "target": 34962
    },
    {
      "buffer": 0,
      "byteLength": 480,
      "byteOffset": 1160
    }
  ],
  "buffers": [
    {
      "byteLength": 1640,
      "uri": "out.bin"
    }
  ],
  "extras": {
    "FBX-glTF-conv": {
      "animationFrameRate": 30.0
    }
  },
  "images": [
    {
      "extras": {
        "FBX-glTF-conv": {
          "fileName": "C:\\_Projects\\AssetStore\\ToonSoldiers\\_5_ToonSoldiers_2\\_construct\\NEW\\weapons\\TS_weapons_texture2.psd",
          "relativeFileName": "..\\..\\..\\..\\..\\..\\..\\..\\..\\..\\_Projects\\AssetStore\\ToonSoldiers\\_5_ToonSoldiers_2\\_construct\\NEW\\weapons\\TS_weapons_texture2.psd"
        }
      },
      "name": "Map #18",
      "uri": "data:image/png;base64,"
    }
  ],
  "materials": [
    {
      "name": "ToonSoldiers_weapons",
      "pbrMetallicRoughness": {
        "baseColorTexture": {
          "index": 0
        },
        "metallicFactor": 0.4000000059604645,
        "roughnessFactor": 0.7071067690849304
      }
    }
  ],
  "meshes": [
    {
      "name": "projectile_launcher_grenade",
      "primitives": [
        {
          "attributes": {
            "NORMAL": 1,
            "POSITION": 0,
            "TEXCOORD_0": 2,
            "TEXCOORD_1": 3
          },
          "indices": 4,
          "material": 0
        }
      ]
    }
  ],
  "nodes": [
    {
      "mesh": 0,
      "name": "projectile_launcher_grenade",
      "rotation": [
        -0.7071067094802856,
        -0.0,
        0.0,
        0.7071068286895752
      ]
    }
  ],
  "samplers": [
    {}
  ],
  "scenes": [
    {
      "nodes": [
        0
      ]
    }
  ],
  "textures": [
    {
      "name": "Map #18",
      "sampler": 0,
      "source": 0
    }
  ]
}