{
  "accessors": [
    {
      "bufferView": 0,
      "componentType": 5126,
      "count": 54,
      "max": [
        0.03365525230765343,
        0.033204585313797,
        -0.10729096084833145
      ],
      "min": [
        0.012506936676800251,
        0.030048491433262825,
        -0.1267068237066269
      ],
      "name": "da_03_platform02_Material0/POSITION",
      "type": "VEC3"
    },
    {
      "bufferView": 0,
      "byteOffset": 12,
      "componentType": 5126,
      "count": 54,
      "name": "da_03_platform02_Material0/NORMAL",
      "type": "VEC3"
    },
    {
      "bufferView": 0,
      "byteOffset": 24,
      "componentType": 5126,
      "count": 54,
      "name": "da_03_platform02_Material0/TEXCOORD_0",
      "type": "VEC2"
    },
    {
      "bufferView": 1,
      "componentType": 5125,
      "count": 84,
      "name": "da_03_platform02_Material0/INDICES",
      "type": "SCALAR"
    },
    {
      "bufferView": 2,
      "componentType": 5126,
      "count": 54,
      "max": [
        0.03365525230765343,
        0.030048491433262825,
        -0.10729096084833145
      ],
      "min": [
        0.012506936676800251,
        0.003834962844848633,
        -0.1267068237066269
      ],
      "name": "da_03_platform02_Material0/POSITION",
      "type": "VEC3"
    },
    {
      "bufferView": 2,
      "byteOffset": 12,
      "componentType": 5126,
      "count": 54,
      "name": "da_03_platform02_Material0/NORMAL",
      "type": "VEC3"
    },
    {
      "bufferView": 2,
      "byteOffset": 24,
      "componentType": 5126,
      "count": 54,
      "name": "da_03_platform02_Material0/TEXCOORD_0",
      "type": "VEC2"
    },
    {
      "bufferView": 3,
      "componentType": 5125,
      "count": 84,
      "name": "da_03_platform02_Material0/INDICES",
      "type": "SCALAR"
    },
    {
      "bufferView": 4,
      "componentType": 5126,
      "count": 54,
      "max": [
        -0.009403485804796219,
        0.01578248105943203,
        -0.10661241412162781
      ],
      "min": [
        -0.03055179864168167,
        0.012626384384930134,
        -0.12602826952934265
      ],
      "name": "da_04_platform02_Material0/POSITION",
      "type": "VEC3"
    },
    {
      "bufferView": 4,
      "byteOffset": 12,
      "componentType": 5126,
      "count": 54,
      "name": "da_04_platform02_Material0/NORMAL",
      "type": "VEC3"
    },
    {
      "bufferView": 4,
      "byteOffset": 24,
      "componentType": 5126,
      "count": 54,
      "name": "da_04_platform02_Material0/TEXCOORD_0",
      "type": "VEC2"
    },
    {
      "bufferView": 5,
      "componentType": 5125,
      "count": 84,
      "name": "da_04_platform02_Material0/INDICES",
      "type": "SCALAR"
    },
    {
      "bufferView": 6,
      "componentType": 5126,
      "count": 54,
      "max": [
        -0.009403485804796219,
        0.012626384384930134,
        -0.10661241412162781
      ],
      "min": [
        -0.03055179864168167,
        0.00759302731603384,
        -0.12602826952934265
      ],
      "name": "da_04_platform02_Material0/POSITION",
      "type": "VEC3"
    },
    {
      "bufferView": 6,
      "byteOffset": 12,
      "componentType": 5126,
      "count": 54,
      "name": "da_04_platform02_Material0/NORMAL",
      "type": "VEC3"
    },
    {
      "bufferView": 6,
      "byteOffset": 24,
      "componentType": 5126,
      "count": 54,
      "name": "da_04_platform02_Material0/TEXCOORD_0",
      "type": "VEC2"
    },
    {
      "bufferView": 7,
      "componentType": 5125,
      "count": 84,
      "name": "da_04_platform02_Material0/INDICES",
      "type": "SCALAR"
    },
    {
      "bufferView": 8,
      "componentType": 5126,
      "count": 112,
      "max": [
        0.031195351853966713,
        0.03980028256773949,
        -0.026682322844862938
      ],
      "min": [
        -0.029799003154039383,
        0.004135788418352604,
        -0.12368997931480408
      ],
      "name": "platform02_Material0/POSITION",
      "type": "VEC3"
    },
    {
      "bufferView": 8,
      "byteOffset": 12,
      "componentType": 5126,
      "count": 112,
      "name": "platform02_Material0/NORMAL",
      "type": "VEC3"
    },
    {
      "bufferView": 8,
      "byteOffset": 24,
      "componentType": 5126,
      "count": 112,
      "name": "platform02_Material0/TEXCOORD_0",
      "type": "VEC2"
    },
    {
      "bufferView": 9,
      "componentType": 5125,
      "count": 288,
      "name": "platform02_Material0/INDICES",
      "type": "SCALAR"
    },
    {
      "bufferView": 10,
      "componentType": 5126,
      "count": 16,
      "max": [
        0.028510257601737976,
        0.03738049045205116,
        -0.0292096808552742
      ],
      "min": [
        -0.027113908901810646,
        0.03738049045205116,
        -0.12116262316703796
      ],
      "name": "platform02_Material0/POSITION",
      "type": "VEC3"
    },
    {
      "bufferView": 10,
      "byteOffset": 12,
      "componentType": 5126,
      "count": 16,
      "name": "platform02_Material0/NORMAL",
      "type": "VEC3"
    },
    {
      "bufferView": 10,
      "byteOffset": 24,
      "componentType": 5126,
      "count": 16,
      "name": "platform02_Material0/TEXCOORD_0",
      "type": "VEC2"
    },
    {
      "bufferView": 11,
      "componentType": 5125,
      "count": 42,
      "name": "platform02_Material0/INDICES",
      "type": "SCALAR"
    }
  ],
  "asset": {
    "copyright": "Copyright (c) 2018-2020 Chukong Technologies Inc.",
    "generator": "FBX-glTF-conv",
    "version": "2.0"
  },
  "bufferViews": [
    {
      "buffer": 0,
      "byteLength": 1728,
      "byteStride": 32,
      "name": "da_03_platform02_Material0",
      "target": 34962
    },
    {
      "buffer": 0,
      "byteLength": 336,
      "byteOffset": 1728
    },
    {
      "buffer": 0,
      "byteLength": 1728,
      "byteOffset": 2064,
      "byteStride": 32,
      "name": "da_03_platform02_Material0",
      "target": 34962
    },
    {
      "buffer": 0,
      "byteLength": 336,
      "byteOffset": 3792
    },
    {
      "buffer": 0,
      "byteLength": 1728,
      "byteOffset": 4128,
      "byteStride": 32,
      "name": "da_04_platform02_Material0",
      "target": 34962
    },
    {
      "buffer": 0,
      "byteLength": 336,
      "byteOffset": 5856
    },
    {
      "buffer": 0,
      "byteLength": 1728,
      "byteOffset": 6192,
      "byteStride": 32,
      "name": "da_04_platform02_Material0",
      "target": 34962
    },
    {
      "buffer": 0,
      "byteLength": 336,
      "byteOffset": 7920
    },
    {
      "buffer": 0,
      "byteLength": 3584,
      "byteOffset": 8256,
      "byteStride": 32,
      "name": "platform02_Material0",
      "target": 34962
    },
    {
      "buffer": 0,
      "byteLength": 1152,
      "byteOffset": 11840
    },
    {
      "buffer": 0,
      "byteLength": 512,
      "byteOffset": 12992,
      "byteStride": 32,
      "name": "platform02_Material0",
      "target": 34962
    },
    {
      "buffer": 0,
      "byteLength": 168,
      "byteOffset": 13504
    }
  ],
  "buffers": [
    {
      "byteLength": 13672,
      "uri": "out.bin"
    }
  ],
  "extras": {
    "FBX-glTF-conv": {
      "animationFrameRate": 24.0
    }
  },
  "materials": [
    {
      "name": "cat_mat",
      "pbrMetallicRoughness": {
        "baseColorFactor": [
          0.4320000112056732,
          0.34088000655174255,
          0.177839994430542,
          1.0
        ],
        "metallicFactor": 0.4000000059604645,
        "roughnessFactor": 0.49053239822387695
      }
    },
    {
      "name": "platform02_mat",
      "pbrMetallicRoughness": {
        "baseColorFactor": [
          0.3375999927520752,
          0.302460640668869,
          0.13909119367599487,
          1.0
        ],
        "metallicFactor": 0.4000000059604645,
        "roughnessFactor": 0.49053239822387695
      }
    },
    {
      "name": "mat_cat_bg02_mat",
      "pbrMetallicRoughness": {
        "baseColorFactor": [
          0.4000000059604645,
          0.3709692656993866,
          0.23600001633167267,
          1.0
        ],
        "metallicFactor": 0.4000000059604645,
        "roughnessFactor": 0.49053239822387695
      }
    }
  ],
  "meshes": [
    {
      "name": "da_03_platform02_Material0",
      "primitives": [
        {
          "attributes": {
            "NORMAL": 1,
            "POSITION": 0,
            "TEXCOORD_0": 2
          },
          "indices": 3,
          "material": 0
        },
        {
          "attributes": {
            "NORMAL": 5,
            "POSITION": 4,
            "TEXCOORD_0": 6
          },
          "indices": 7,
          "material": 1
        }
      ]
    },
    {
      "name": "da_04_platform02_Material0",
      "primitives": [
        {
          "attributes": {
            "NORMAL": 9,
            "POSITION": 8,
            "TEXCOORD_0": 10
          },
          "indices": 11,
          "material": 0
        },
        {
          "attributes": {
            "NORMAL": 13,
            "POSITION": 12,
            "TEXCOORD_0": 14
          },
          "indices": 15,
          "material": 1
        }
      ]
    },
    {
      "name": "platform02_Material0",
      "primitives": [
        {
          "attributes": {
            "NORMAL": 17,
            "POSITION": 16,
            "TEXCOORD_0": 18
          },
          "indices": 19,
          "material": 1
        },
        {
          "attributes": {
            "NORMAL": 21,
            "POSITION": 20,
            "TEXCOORD_0": 22
          },
          "indices": 23,
          "material": 2
        }
      ]
    }
  ],
  "nodes": [
    {
      "children": [
        1,
        2,
        3
      ],
      "name": "platform02"
    },
    {
      "mesh": 0,
      "name": "da_03_platform02"
    },
    {
      "mesh": 1,
      "name": "da_04_platform02"
    },
    {
      "mesh": 2,
      "name": "platform02"
    }
  ],
  "scenes": [
    {
      "nodes": [
        0
      ]
    }
  ]
}