{
  "accessors": [
    {
      "bufferView": 0,
      "componentType": 5126,
      "count": 20,
      "max": [
        0.04430355504155159,
        0.11090437322854996,
        0.045295681804418564
      ],
      "min": [
        -0.04430355131626129,
        -0.11090429127216339,
        -0.045295700430870056
      ],
      "name": "shell_shotgun/POSITION",
      "type": "VEC3"
    },
    {
      "bufferView": 0,
      "byteOffset": 12,
      "componentType": 5126,
      "count": 20,
      "name": "shell_shotgun/NORMAL",
      "type": "VEC3"
    },
    {
      "bufferView": 0,
      "byteOffset": 24,
      "componentType": 5126,
      "count": 20,
      "name": "shell_shotgun/TEXCOORD_0",
      "type": "VEC2"
    },
    {
      "bufferView": 0,
      "byteOffset": 32,
      "componentType": 5126,
      "count": 20,
      "name": "shell_shotgun/TEXCOORD_1",
      "type": "VEC2"
    },
    {
      "bufferView": 1,
      "componentType": 5125,
      "count": 48,
      "name": "shell_shotgun/INDICES",
      "type": "SCALAR"
    }
  ],
  "asset": {
    "copyright": "Copyright (c) 2018-2020 Chukong Technologies Inc.",
    "generator": "FBX-glTF-conv",
    "version": "2.0"
  },
  "bufferViews": [
    {
      "buffer": 0,
      "byteLength": 800,
      "byteStride": 40,
      "name": "shell_shotgun",
      "target": 34962
    },
    {
      "buffer": 0,
      "byteLength": 192,
      "byteOffset": 800
    }
  ],
  "buffers": [
    {
      "byteLength": 992,
      "uri": "out.bin"
    }
  ],
  "extras": {
    "FBX-glTF-conv": {
      "animationFrameRate": 30.0
    }
  },
  "images": [
    {
      "extras": {
        "FBX-glTF-conv": {
          "fileName": "C:\\_Projects\\AssetStore\\ToonSoldiers\\_5_ToonSoldiers_2\\_construct\\NEW\\weapons\\TS_weapons_texture2.psd",
          "relativeFileName": "..\\..\\..\\..\\..\\..\\..\\..\\..\\..\\_Projects\\AssetStore\\ToonSoldiers\\_5_ToonSoldiers_2\\_construct\\NEW\\weapons\\TS_weapons_texture2.psd"
        }
      },
      "name": "Map #18",
      "uri": "data:image/png;base64,"
    }
  ],
  "materials": [
    {
      "name": "ToonSoldiers_weapons",
      "pbrMetallicRoughness": {
        "baseColorTexture": {
          "index": 0
        },
        "metallicFactor": 0.4000000059604645,
        "roughnessFactor": 0.7071067690849304
      }
    }
  ],
  "meshes": [
    {
      "name": "shell_shotgun",
      "primitives": [
        {
          "attributes": {
            "NORMAL": 1,
            "POSITION": 0,
            "TEXCOORD_0": 2,
            "TEXCOORD_1": 3
          },
          "indices": 4,
          "material": 0
        }
      ]
    }
  ],
  "nodes": [
    {
      "mesh": 0,
      "name": "shell_shotgun",
      "rotation": [
        -0.7071067690849304,
        -0.0,
        0.0,
        0.7071067690849304
      ]
    }
  ],
  "samplers": [
    {}
  ],
  "scenes": [
    {
      "nodes": [
        0
      ]
    }
  ],
  "textures": [
    {
      "name": "Map #18",
      "sampler": 0,
      "source": 0
    }
  ]
}