{
  "accessors": [
    {
      "bufferView": 0,
      "componentType": 5126,
      "count": 225,
      "max": [
        1.064502239227295,
        0.15000000596046448,
        0.9660255312919617
      ],
      "min": [
        -1.064502239227295,
        -0.15000000596046448,
        -0.9660255908966064
      ],
      "name": "Model__4_/POSITION",
      "type": "VEC3"
    },
    {
      "bufferView": 0,
      "byteOffset": 12,
      "componentType": 5126,
      "count": 225,
      "name": "Model__4_/NORMAL",
      "type": "VEC3"
    },
    {
      "bufferView": 0,
      "byteOffset": 24,
      "componentType": 5126,
      "count": 225,
      "name": "Model__4_/TEXCOORD_0",
      "type": "VEC2"
    },
    {
      "bufferView": 1,
      "componentType": 5125,
      "count": 864,
      "name": "Model__4_/INDICES",
      "type": "SCALAR"
    }
  ],
  "asset": {
    "copyright": "Copyright (c) 2018-2020 Chukong Technologies Inc.",
    "generator": "FBX-glTF-conv",
    "version": "2.0"
  },
  "bufferViews": [
    {
      "buffer": 0,
      "byteLength": 7200,
      "byteStride": 32,
      "name": "Model__4_",
      "target": 34962
    },
    {
      "buffer": 0,
      "byteLength": 3456,
      "byteOffset": 7200
    }
  ],
  "buffers": [
    {
      "byteLength": 10656,
      "uri": "out.bin"
    }
  ],
  "extras": {
    "FBX-glTF-conv": {
      "animationFrameRate": 24.0
    }
  },
  "materials": [
    {
      "name": "HexaBlue"
    }
  ],
  "meshes": [
    {
      "name": "Model__4_",
      "primitives": [
        {
          "attributes": {
            "NORMAL": 1,
            "POSITION": 0,
            "TEXCOORD_0": 2
          },
          "indices": 3,
          "material": 0
        }
      ]
    }
  ],
  "nodes": [
    {
      "mesh": 0,
      "name": "Model__4_"
    }
  ],
  "scenes": [
    {
      "nodes": [
        0
      ]
    }
  ]
}