{
  "accessors": [
    {
      "bufferView": 0,
      "componentType": 5126,
      "count": 343,
      "max": [
        1.1995136737823486,
        0.12994422018527985,
        1.0748050212860107
      ],
      "min": [
        -1.1995136737823486,
        -0.12994679808616638,
        -1.0748050212860107
      ],
      "name": "Hexa_AW_V3/POSITION",
      "type": "VEC3"
    },
    {
      "bufferView": 0,
      "byteOffset": 12,
      "componentType": 5126,
      "count": 343,
      "name": "Hexa_AW_V3/NORMAL",
      "type": "VEC3"
    },
    {
      "bufferView": 0,
      "byteOffset": 24,
      "componentType": 5126,
      "count": 343,
      "name": "Hexa_AW_V3/TEXCOORD_0",
      "type": "VEC2"
    },
    {
      "bufferView": 1,
      "componentType": 5125,
      "count": 1068,
      "name": "Hexa_AW_V3/INDICES",
      "type": "SCALAR"
    }
  ],
  "asset": {
    "copyright": "Copyright (c) 2018-2020 Chukong Technologies Inc.",
    "generator": "FBX-glTF-conv",
    "version": "2.0"
  },
  "bufferViews": [
    {
      "buffer": 0,
      "byteLength": 10976,
      "byteStride": 32,
      "name": "Hexa_AW_V3",
      "target": 34962
    },
    {
      "buffer": 0,
      "byteLength": 4272,
      "byteOffset": 10976
    }
  ],
  "buffers": [
    {
      "byteLength": 15248,
      "uri": "out.bin"
    }
  ],
  "extras": {
    "FBX-glTF-conv": {
      "animationFrameRate": 24.0
    }
  },
  "materials": [
    {
      "name": "lambert1",
      "pbrMetallicRoughness": {
        "baseColorFactor": [
          0.4000000059604645,
          0.4000000059604645,
          0.4000000059604645,
          1.0
        ]
      }
    }
  ],
  "meshes": [
    {
      "name": "Hexa_AW_V3",
      "primitives": [
        {
          "attributes": {
            "NORMAL": 1,
            "POSITION": 0,
            "TEXCOORD_0": 2
          },
          "indices": 3,
          "material": 0
        }
      ]
    }
  ],
  "nodes": [
    {
      "mesh": 0,
      "name": "Hexa_AW_V3"
    }
  ],
  "scenes": [
    {
      "nodes": [
        0
      ]
    }
  ]
}