{
  "accessors": [
    {
      "bufferView": 0,
      "componentType": 5126,
      "count": 228,
      "max": [
        10.433023452758789,
        19.963586807250977,
        10.23373031616211
      ],
      "min": [
        -9.566976547241211,
        -0.17867660522460938,
        -9.766277313232422
      ],
      "name": "CardboardBox_20x20x10_Animated_Model/POSITION",
      "type": "VEC3"
    },
    {
      "bufferView": 0,
      "byteOffset": 12,
      "componentType": 5126,
      "count": 228,
      "name": "CardboardBox_20x20x10_Animated_Model/NORMAL",
      "type": "VEC3"
    },
    {
      "bufferView": 0,
      "byteOffset": 24,
      "componentType": 5126,
      "count": 228,
      "name": "CardboardBox_20x20x10_Animated_Model/TEXCOORD_0",
      "type": "VEC2"
    },
    {
      "bufferView": 0,
      "byteOffset": 32,
      "componentType": 5126,
      "count": 228,
      "name": "CardboardBox_20x20x10_Animated_Model/COLOR_0",
      "type": "VEC4"
    },
    {
      "bufferView": 0,
      "byteOffset": 48,
      "componentType": 5123,
      "count": 228,
      "name": "CardboardBox_20x20x10_Animated_Model/JOINTS_0",
      "type": "VEC4"
    },
    {
      "bufferView": 0,
      "byteOffset": 56,
      "componentType": 5126,
      "count": 228,
      "name": "CardboardBox_20x20x10_Animated_Model/WEIGHTS_0",
      "type": "VEC4"
    },
    {
      "bufferView": 1,
      "componentType": 5125,
      "count": 540,
      "name": "CardboardBox_20x20x10_Animated_Model/INDICES",
      "type": "SCALAR"
    },
    {
      "bufferView": 2,
      "componentType": 5126,
      "count": 5,
      "name": "/InverseBindMatrices",
      "type": "MAT4"
    },
    {
      "bufferView": 3,
      "componentType": 5126,
      "count": 2,
      "max": [
        0.8333333134651184
      ],
      "min": [
        0.0
      ],
      "name": "CardboardBox_20x20x10_Joint_01/Trs/Input",
      "type": "SCALAR"
    },
    {
      "bufferView": 4,
      "componentType": 5126,
      "count": 2,
      "name": "CardboardBox_20x20x10_Joint_01/translation/Output",
      "type": "VEC3"
    },
    {
      "bufferView": 5,
      "componentType": 5126,
      "count": 2,
      "name": "CardboardBox_20x20x10_Joint_01/rotation/Output",
      "type": "VEC4"
    },
    {
      "bufferView": 6,
      "componentType": 5126,
      "count": 2,
      "name": "CardboardBox_20x20x10_Joint_01/scale/Output",
      "type": "VEC3"
    },
    {
      "bufferView": 7,
      "componentType": 5126,
      "count": 21,
      "max": [
        0.8333333134651184
      ],
      "min": [
        0.0
      ],
      "name": "CardboardBox_20x20x10_Joint_02/Trs/Input",
      "type": "SCALAR"
    },
    {
      "bufferView": 8,
      "componentType": 5126,
      "count": 21,
      "name": "CardboardBox_20x20x10_Joint_02/translation/Output",
      "type": "VEC3"
    },
    {
      "bufferView": 9,
      "componentType": 5126,
      "count": 21,
      "name": "CardboardBox_20x20x10_Joint_02/rotation/Output",
      "type": "VEC4"
    },
    {
      "bufferView": 10,
      "componentType": 5126,
      "count": 21,
      "name": "CardboardBox_20x20x10_Joint_02/scale/Output",
      "type": "VEC3"
    },
    {
      "bufferView": 11,
      "componentType": 5126,
      "count": 16,
      "max": [
        0.8333333134651184
      ],
      "min": [
        0.0
      ],
      "name": "CardboardBox_20x20x10_joint_03/Trs/Input",
      "type": "SCALAR"
    },
    {
      "bufferView": 12,
      "componentType": 5126,
      "count": 16,
      "name": "CardboardBox_20x20x10_joint_03/translation/Output",
      "type": "VEC3"
    },
    {
      "bufferView": 13,
      "componentType": 5126,
      "count": 16,
      "name": "CardboardBox_20x20x10_joint_03/rotation/Output",
      "type": "VEC4"
    },
    {
      "bufferView": 14,
      "componentType": 5126,
      "count": 16,
      "name": "CardboardBox_20x20x10_joint_03/scale/Output",
      "type": "VEC3"
    },
    {
      "bufferView": 15,
      "componentType": 5126,
      "count": 21,
      "max": [
        0.8333333134651184
      ],
      "min": [
        0.0
      ],
      "name": "CardboardBox_20x20x10_Joint_04/Trs/Input",
      "type": "SCALAR"
    },
    {
      "bufferView": 16,
      "componentType": 5126,
      "count": 21,
      "name": "CardboardBox_20x20x10_Joint_04/translation/Output",
      "type": "VEC3"
    },
    {
      "bufferView": 17,
      "componentType": 5126,
      "count": 21,
      "name": "CardboardBox_20x20x10_Joint_04/rotation/Output",
      "type": "VEC4"
    },
    {
      "bufferView": 18,
      "componentType": 5126,
      "count": 21,
      "name": "CardboardBox_20x20x10_Joint_04/scale/Output",
      "type": "VEC3"
    },
    {
      "bufferView": 19,
      "componentType": 5126,
      "count": 16,
      "max": [
        0.8333333134651184
      ],
      "min": [
        0.0
      ],
      "name": "CardboardBox_20x20x10_Joint_05/Trs/Input",
      "type": "SCALAR"
    },
    {
      "bufferView": 20,
      "componentType": 5126,
      "count": 16,
      "name": "CardboardBox_20x20x10_Joint_05/translation/Output",
      "type": "VEC3"
    },
    {
      "bufferView": 21,
      "componentType": 5126,
      "count": 16,
      "name": "CardboardBox_20x20x10_Joint_05/rotation/Output",
      "type": "VEC4"
    },
    {
      "bufferView": 22,
      "componentType": 5126,
      "count": 16,
      "name": "CardboardBox_20x20x10_Joint_05/scale/Output",
      "type": "VEC3"
    }
  ],
  "animations": [
    {
      "channels": [
        {
          "sampler": 0,
          "target": {
            "node": 2,
            "path": "translation"
          }
        },
        {
          "sampler": 1,
          "target": {
            "node": 2,
            "path": "rotation"
          }
        },
        {
          "sampler": 2,
          "target": {
            "node": 2,
            "path": "scale"
          }
        },
        {
          "sampler": 3,
          "target": {
            "node": 3,
            "path": "translation"
          }
        },
        {
          "sampler": 4,
          "target": {
            "node": 3,
            "path": "rotation"
          }
        },
        {
          "sampler": 5,
          "target": {
            "node": 3,
            "path": "scale"
          }
        },
        {
          "sampler": 6,
          "target": {
            "node": 4,
            "path": "translation"
          }
        },
        {
          "sampler": 7,
          "target": {
            "node": 4,
            "path": "rotation"
          }
        },
        {
          "sampler": 8,
          "target": {
            "node": 4,
            "path": "scale"
          }
        },
        {
          "sampler": 9,
          "target": {
            "node": 5,
            "path": "translation"
          }
        },
        {
          "sampler": 10,
          "target": {
            "node": 5,
            "path": "rotation"
          }
        },
        {
          "sampler": 11,
          "target": {
            "node": 5,
            "path": "scale"
          }
        },
        {
          "sampler": 12,
          "target": {
            "node": 6,
            "path": "translation"
          }
        },
        {
          "sampler": 13,
          "target": {
            "node": 6,
            "path": "rotation"
          }
        },
        {
          "sampler": 14,
          "target": {
            "node": 6,
            "path": "scale"
          }
        }
      ],
      "name": "Scene",
      "samplers": [
        {
          "input": 8,
          "output": 9
        },
        {
          "input": 8,
          "output": 10
        },
        {
          "input": 8,
          "output": 11
        },
        {
          "input": 12,
          "output": 13
        },
        {
          "input": 12,
          "output": 14
        },
        {
          "input": 12,
          "output": 15
        },
        {
          "input": 16,
          "output": 17
        },
        {
          "input": 16,
          "output": 18
        },
        {
          "input": 16,
          "output": 19
        },
        {
          "input": 20,
          "output": 21
        },
        {
          "input": 20,
          "output": 22
        },
        {
          "input": 20,
          "output": 23
        },
        {
          "input": 24,
          "output": 25
        },
        {
          "input": 24,
          "output": 26
        },
        {
          "input": 24,
          "output": 27
        }
      ]
    }
  ],
  "asset": {
    "copyright": "Copyright (c) 2018-2020 Chukong Technologies Inc.",
    "generator": "FBX-glTF-conv",
    "version": "2.0"
  },
  "bufferViews": [
    {
      "buffer": 0,
      "byteLength": 16416,
      "byteStride": 72,
      "name": "CardboardBox_20x20x10_Animated_Model",
      "target": 34962
    },
    {
      "buffer": 0,
      "byteLength": 2160,
      "byteOffset": 16416
    },
    {
      "buffer": 0,
      "byteLength": 320,
      "byteOffset": 18576
    },
    {
      "buffer": 0,
      "byteLength": 8,
      "byteOffset": 18896
    },
    {
      "buffer": 0,
      "byteLength": 24,
      "byteOffset": 18904
    },
    {
      "buffer": 0,
      "byteLength": 32,
      "byteOffset": 18928
    },
    {
      "buffer": 0,
      "byteLength": 24,
      "byteOffset": 18960
    },
    {
      "buffer": 0,
      "byteLength": 84,
      "byteOffset": 18984
    },
    {
      "buffer": 0,
      "byteLength": 252,
      "byteOffset": 19068
    },
    {
      "buffer": 0,
      "byteLength": 336,
      "byteOffset": 19320
    },
    {
      "buffer": 0,
      "byteLength": 252,
      "byteOffset": 19656
    },
    {
      "buffer": 0,
      "byteLength": 64,
      "byteOffset": 19908
    },
    {
      "buffer": 0,
      "byteLength": 192,
      "byteOffset": 19972
    },
    {
      "buffer": 0,
      "byteLength": 256,
      "byteOffset": 20164
    },
    {
      "buffer": 0,
      "byteLength": 192,
      "byteOffset": 20420
    },
    {
      "buffer": 0,
      "byteLength": 84,
      "byteOffset": 20612
    },
    {
      "buffer": 0,
      "byteLength": 252,
      "byteOffset": 20696
    },
    {
      "buffer": 0,
      "byteLength": 336,
      "byteOffset": 20948
    },
    {
      "buffer": 0,
      "byteLength": 252,
      "byteOffset": 21284
    },
    {
      "buffer": 0,
      "byteLength": 64,
      "byteOffset": 21536
    },
    {
      "buffer": 0,
      "byteLength": 192,
      "byteOffset": 21600
    },
    {
      "buffer": 0,
      "byteLength": 256,
      "byteOffset": 21792
    },
    {
      "buffer": 0,
      "byteLength": 192,
      "byteOffset": 22048
    }
  ],
  "buffers": [
    {
      "byteLength": 22240,
      "uri": "out.bin"
    }
  ],
  "extras": {
    "FBX-glTF-conv": {
      "animationFrameRate": 24.0
    }
  },
  "meshes": [
    {
      "name": "CardboardBox_20x20x10_Animated_Model",
      "primitives": [
        {
          "attributes": {
            "COLOR_0": 3,
            "JOINTS_0": 4,
            "NORMAL": 1,
            "POSITION": 0,
            "TEXCOORD_0": 2,
            "WEIGHTS_0": 5
          },
          "indices": 6
        }
      ]
    }
  ],
  "nodes": [
    {
      "mesh": 0,
      "name": "CardboardBox_20x20x10_Animated_Model",
      "skin": 0
    },
    {
      "children": [
        2
      ],
      "name": "Armature",
      "rotation": [
        -0.7071068286895752,
        0.0,
        0.0,
        0.7071067094802856
      ]
    },
    {
      "children": [
        3,
        4,
        5,
        6
      ],
      "extras": {
        "FBX-glTF-conv": {
          "skeleton": {
            "skeletonType": "LimbNode"
          }
        }
      },
      "name": "CardboardBox_20x20x10_Joint_01",
      "rotation": [
        0.6424378752708435,
        -0.2860729992389679,
        -0.3027975559234619,
        0.643233597278595
      ],
      "scale": [
        0.9999999403953552,
        0.9999998807907104,
        1.0
      ]
    },
    {
      "extras": {
        "FBX-glTF-conv": {
          "skeleton": {
            "skeletonType": "LimbNode"
          }
        }
      },
      "name": "CardboardBox_20x20x10_Joint_02",
      "rotation": [
        -0.2521299719810486,
        0.6564952731132507,
        0.6689550280570984,
        0.2407146841287613
      ],
      "scale": [
        0.9999999403953552,
        1.0000001192092896,
        0.9999998211860657
      ],
      "translation": [
        6.454421520233154,
        10.27865219116211,
        -7.705755710601807
      ]
    },
    {
      "extras": {
        "FBX-glTF-conv": {
          "skeleton": {
            "skeletonType": "LimbNode"
          }
        }
      },
      "name": "CardboardBox_20x20x10_joint_03",
      "rotation": [
        0.6684609651565552,
        -0.6571164727210999,
        0.2401932179927826,
        -0.2523193955421448
      ],
      "scale": [
        1.0,
        1.0000001192092896,
        1.0
      ],
      "translation": [
        7.430715084075928,
        10.3385591506958,
        6.678255558013916
      ]
    },
    {
      "extras": {
        "FBX-glTF-conv": {
          "skeleton": {
            "skeletonType": "LimbNode"
          }
        }
      },
      "name": "CardboardBox_20x20x10_Joint_04",
      "rotation": [
        0.24072684347629547,
        0.668779194355011,
        -0.6566740274429321,
        0.2521194517612457
      ],
      "scale": [
        1.0000001192092896,
        1.0000001192092896,
        1.0000004768371582
      ],
      "translation": [
        -6.409856796264648,
        9.853523254394531,
        7.209885120391846
      ]
    },
    {
      "extras": {
        "FBX-glTF-conv": {
          "skeleton": {
            "skeletonType": "LimbNode"
          }
        }
      },
      "name": "CardboardBox_20x20x10_Joint_05",
      "rotation": [
        0.6572210192680359,
        0.668329656124115,
        0.2524433434009552,
        0.240142360329628
      ],
      "scale": [
        1.0000001192092896,
        1.000000238418579,
        0.9999999403953552
      ],
      "translation": [
        -7.47522497177124,
        10.171034812927246,
        -6.182426929473877
      ]
    }
  ],
  "scenes": [
    {
      "name": "Scene",
      "nodes": [
        0,
        1
      ]
    }
  ],
  "skins": [
    {
      "inverseBindMatrices": 7,
      "joints": [
        2,
        3,
        4,
        5,
        6
      ]
    }
  ]
}