{
  "accessors": [
    {
      "bufferView": 0,
      "componentType": 5126,
      "count": 6417,
      "max": [
        1.0120916366577148,
        1.9912261962890625,
        0.2907752990722656
      ],
      "min": [
        -1.0121175050735474,
        -0.00012746274296659976,
        -0.29077544808387756
      ],
      "name": "Store_Shelving/POSITION",
      "type": "VEC3"
    },
    {
      "bufferView": 0,
      "byteOffset": 12,
      "componentType": 5126,
      "count": 6417,
      "name": "Store_Shelving/NORMAL",
      "type": "VEC3"
    },
    {
      "bufferView": 0,
      "byteOffset": 24,
      "componentType": 5126,
      "count": 6417,
      "name": "Store_Shelving/TEXCOORD_0",
      "type": "VEC2"
    },
    {
      "bufferView": 1,
      "componentType": 5125,
      "count": 17976,
      "name": "Store_Shelving/INDICES",
      "type": "SCALAR"
    },
    {
      "bufferView": 2,
      "componentType": 5126,
      "count": 18,
      "max": [
        -2.2704849243164063,
        5.060866355895996,
        6.7453789710998535
      ],
      "min": [
        -7.378873825073242,
        -1.3594870567321777,
        -4.218578338623047
      ],
      "name": "Outdoor/POSITION",
      "type": "VEC3"
    },
    {
      "bufferView": 2,
      "byteOffset": 12,
      "componentType": 5126,
      "count": 18,
      "name": "Outdoor/NORMAL",
      "type": "VEC3"
    },
    {
      "bufferView": 2,
      "byteOffset": 24,
      "componentType": 5126,
      "count": 18,
      "name": "Outdoor/TEXCOORD_0",
      "type": "VEC2"
    },
    {
      "bufferView": 3,
      "componentType": 5125,
      "count": 78,
      "name": "Outdoor/INDICES",
      "type": "SCALAR"
    },
    {
      "bufferView": 4,
      "componentType": 5126,
      "count": 140,
      "max": [
        3.9011051654815674,
        3.7201621532440186,
        4.356376647949219
      ],
      "min": [
        -2.571073293685913,
        -0.11617432534694672,
        -0.3580586314201355
      ],
      "name": "Store/POSITION",
      "type": "VEC3"
    },
    {
      "bufferView": 4,
      "byteOffset": 12,
      "componentType": 5126,
      "count": 140,
      "name": "Store/NORMAL",
      "type": "VEC3"
    },
    {
      "bufferView": 4,
      "byteOffset": 24,
      "componentType": 5126,
      "count": 140,
      "name": "Store/TEXCOORD_0",
      "type": "VEC2"
    },
    {
      "bufferView": 5,
      "componentType": 5125,
      "count": 210,
      "name": "Store/INDICES",
      "type": "SCALAR"
    },
    {
      "bufferView": 6,
      "componentType": 5126,
      "count": 4,
      "max": [
        0.0,
        1.2709462642669678,
        1.9565908908843994
      ],
      "min": [
        0.0,
        -1.2709465026855469,
        -1.9565908908843994
      ],
      "name": "Glass/POSITION",
      "type": "VEC3"
    },
    {
      "bufferView": 6,
      "byteOffset": 12,
      "componentType": 5126,
      "count": 4,
      "name": "Glass/NORMAL",
      "type": "VEC3"
    },
    {
      "bufferView": 6,
      "byteOffset": 24,
      "componentType": 5126,
      "count": 4,
      "name": "Glass/TEXCOORD_0",
      "type": "VEC2"
    },
    {
      "bufferView": 7,
      "componentType": 5125,
      "count": 6,
      "name": "Glass/INDICES",
      "type": "SCALAR"
    },
    {
      "bufferView": 8,
      "componentType": 5126,
      "count": 24,
      "max": [
        0.02624405547976494,
        0.1371750831604004,
        0.3299323320388794
      ],
      "min": [
        -0.02624405547976494,
        -0.1371750831604004,
        -0.3299323320388794
      ],
      "name": "Store_Board/POSITION",
      "type": "VEC3"
    },
    {
      "bufferView": 8,
      "byteOffset": 12,
      "componentType": 5126,
      "count": 24,
      "name": "Store_Board/NORMAL",
      "type": "VEC3"
    },
    {
      "bufferView": 8,
      "byteOffset": 24,
      "componentType": 5126,
      "count": 24,
      "name": "Store_Board/TEXCOORD_0",
      "type": "VEC2"
    },
    {
      "bufferView": 9,
      "componentType": 5125,
      "count": 36,
      "name": "Store_Board/INDICES",
      "type": "SCALAR"
    }
  ],
  "asset": {
    "copyright": "Copyright (c) 2018-2020 Chukong Technologies Inc.",
    "generator": "FBX-glTF-conv",
    "version": "2.0"
  },
  "bufferViews": [
    {
      "buffer": 0,
      "byteLength": 205344,
      "byteStride": 32,
      "name": "Store_Shelving",
      "target": 34962
    },
    {
      "buffer": 0,
      "byteLength": 71904,
      "byteOffset": 205344
    },
    {
      "buffer": 0,
      "byteLength": 576,
      "byteOffset": 277248,
      "byteStride": 32,
      "name": "Outdoor",
      "target": 34962
    },
    {
      "buffer": 0,
      "byteLength": 312,
      "byteOffset": 277824
    },
    {
      "buffer": 0,
      "byteLength": 4480,
      "byteOffset": 278136,
      "byteStride": 32,
      "name": "Store",
      "target": 34962
    },
    {
      "buffer": 0,
      "byteLength": 840,
      "byteOffset": 282616
    },
    {
      "buffer": 0,
      "byteLength": 128,
      "byteOffset": 283456,
      "byteStride": 32,
      "name": "Glass",
      "target": 34962
    },
    {
      "buffer": 0,
      "byteLength": 24,
      "byteOffset": 283584
    },
    {
      "buffer": 0,
      "byteLength": 768,
      "byteOffset": 283608,
      "byteStride": 32,
      "name": "Store_Board",
      "target": 34962
    },
    {
      "buffer": 0,
      "byteLength": 144,
      "byteOffset": 284376
    }
  ],
  "buffers": [
    {
      "byteLength": 284520,
      "uri": "out.bin"
    }
  ],
  "extras": {
    "FBX-glTF-conv": {
      "animationFrameRate": 24.0
    }
  },
  "meshes": [
    {
      "name": "Store_Shelving",
      "primitives": [
        {
          "attributes": {
            "NORMAL": 1,
            "POSITION": 0,
            "TEXCOORD_0": 2
          },
          "indices": 3
        }
      ]
    },
    {
      "name": "Outdoor",
      "primitives": [
        {
          "attributes": {
            "NORMAL": 5,
            "POSITION": 4,
            "TEXCOORD_0": 6
          },
          "indices": 7
        }
      ]
    },
    {
      "name": "Store",
      "primitives": [
        {
          "attributes": {
            "NORMAL": 9,
            "POSITION": 8,
            "TEXCOORD_0": 10
          },
          "indices": 11
        }
      ]
    },
    {
      "name": "Glass",
      "primitives": [
        {
          "attributes": {
            "NORMAL": 13,
            "POSITION": 12,
            "TEXCOORD_0": 14
          },
          "indices": 15
        }
      ]
    },
    {
      "name": "Store_Board",
      "primitives": [
        {
          "attributes": {
            "NORMAL": 17,
            "POSITION": 16,
            "TEXCOORD_0": 18
          },
          "indices": 19
        }
      ]
    }
  ],
  "nodes": [
    {
      "mesh": 0,
      "name": "Store_Shelving"
    },
    {
      "mesh": 1,
      "name": "Outdoor"
    },
    {
      "mesh": 2,
      "name": "Store"
    },
    {
      "mesh": 3,
      "name": "Glass",
      "translation": [
        -2.464085340499878,
        2.216536045074463,
        2.019469976425171
      ]
    },
    {
      "mesh": 4,
      "name": "Store_Board",
      "translation": [
        -2.592292547225952,
        1.8022658824920654,
        1.50433349609375
      ]
    }
  ],
  "scenes": [
    {
      "name": "Scene",
      "nodes": [
        0,
        1,
        2,
        3,
        4
      ]
    }
  ]
}