{
  "accessors": [
    {
      "bufferView": 0,
      "componentType": 5126,
      "count": 20,
      "max": [
        0.03310000151395798,
        0.07795000076293945,
        9.999999747378752e-05
      ],
      "min": [
        -0.03310000151395798,
        -0.07795000076293945,
        -9.999999747378752e-05
      ],
      "name": "_1_Dollar_Variant_Material0/POSITION",
      "type": "VEC3"
    },
    {
      "bufferView": 0,
      "byteOffset": 12,
      "componentType": 5126,
      "count": 20,
      "name": "_1_Dollar_Variant_Material0/NORMAL",
      "type": "VEC3"
    },
    {
      "bufferView": 0,
      "byteOffset": 24,
      "componentType": 5126,
      "count": 20,
      "name": "_1_Dollar_Variant_Material0/TEXCOORD_0",
      "type": "VEC2"
    },
    {
      "bufferView": 1,
      "componentType": 5125,
      "count": 30,
      "name": "_1_Dollar_Variant_Material0/INDICES",
      "type": "SCALAR"
    },
    {
      "bufferView": 2,
      "componentType": 5126,
      "count": 4,
      "max": [
        0.03310000151395798,
        0.07795000076293945,
        -9.999999747378752e-05
      ],
      "min": [
        -0.03310000151395798,
        -0.07795000076293945,
        -9.999999747378752e-05
      ],
      "name": "_1_Dollar_Variant_Material0/POSITION",
      "type": "VEC3"
    },
    {
      "bufferView": 2,
      "byteOffset": 12,
      "componentType": 5126,
      "count": 4,
      "name": "_1_Dollar_Variant_Material0/NORMAL",
      "type": "VEC3"
    },
    {
      "bufferView": 2,
      "byteOffset": 24,
      "componentType": 5126,
      "count": 4,
      "name": "_1_Dollar_Variant_Material0/TEXCOORD_0",
      "type": "VEC2"
    },
    {
      "bufferView": 3,
      "componentType": 5125,
      "count": 6,
      "name": "_1_Dollar_Variant_Material0/INDICES",
      "type": "SCALAR"
    }
  ],
  "asset": {
    "copyright": "Copyright (c) 2018-2020 Chukong Technologies Inc.",
    "generator": "FBX-glTF-conv",
    "version": "2.0"
  },
  "bufferViews": [
    {
      "buffer": 0,
      "byteLength": 640,
      "byteStride": 32,
      "name": "_1_Dollar_Variant_Material0",
      "target": 34962
    },
    {
      "buffer": 0,
      "byteLength": 120,
      "byteOffset": 640
    },
    {
      "buffer": 0,
      "byteLength": 128,
      "byteOffset": 760,
      "byteStride": 32,
      "name": "_1_Dollar_Variant_Material0",
      "target": 34962
    },
    {
      "buffer": 0,
      "byteLength": 24,
      "byteOffset": 888
    }
  ],
  "buffers": [
    {
      "byteLength": 912,
      "uri": "out.bin"
    }
  ],
  "extras": {
    "FBX-glTF-conv": {
      "animationFrameRate": 30.0
    }
  },
  "images": [
    {
      "extras": {
        "FBX-glTF-conv": {
          "fileName": "E:\\UNITY\\FujimartSimulator\\Assets\\3D_Arts_Visuals\\ImportedSPM\\Texture2D\\US_one_dollar_bill,_obverse,_series_2009.png",
          "relativeFileName": "3D_Arts_Visuals\\ImportedSPM\\Texture2D\\US_one_dollar_bill,_obverse,_series_2009.png"
        }
      },
      "name": "DiffuseColor_Texture",
      "uri": "data:image/png;base64,"
    },
    {
      "extras": {
        "FBX-glTF-conv": {
          "fileName": "E:\\UNITY\\FujimartSimulator\\Assets\\3D_Arts_Visuals\\ImportedSPM\\Texture2D\\US_one_dollar_bill,_reverse,_series_2009.png",
          "relativeFileName": "3D_Arts_Visuals\\ImportedSPM\\Texture2D\\US_one_dollar_bill,_reverse,_series_2009.png"
        }
      },
      "name": "DiffuseColor_Texture_1",
      "uri": "data:image/png;base64,"
    }
  ],
  "materials": [
    {
      "name": "_1__Paper_Front",
      "pbrMetallicRoughness": {
        "baseColorTexture": {
          "index": 0
        }
      }
    },
    {
      "name": "_1__Paper_Back",
      "pbrMetallicRoughness": {
        "baseColorTexture": {
          "index": 1
        }
      }
    }
  ],
  "meshes": [
    {
      "name": "_1_Dollar_Variant_Material0",
      "primitives": [
        {
          "attributes": {
            "NORMAL": 1,
            "POSITION": 0,
            "TEXCOORD_0": 2
          },
          "indices": 3,
          "material": 0
        },
        {
          "attributes": {
            "NORMAL": 5,
            "POSITION": 4,
            "TEXCOORD_0": 6
          },
          "indices": 7,
          "material": 1
        }
      ]
    }
  ],
  "nodes": [
    {
      "mesh": 0,
      "name": "_1_Dollar_Variant",
      "rotation": [
        0.7071067690849304,
        0.0,
        0.0,
        0.7071067690849304
      ],
      "scale": [
        2.0,
        0.4500001072883606,
        2.000000476837158
      ]
    }
  ],
  "samplers": [
    {}
  ],
  "scenes": [
    {
      "name": "Scene",
      "nodes": [
        0
      ]
    }
  ],
  "textures": [
    {
      "name": "DiffuseColor_Texture",
      "sampler": 0,
      "source": 0
    },
    {
      "name": "DiffuseColor_Texture_1",
      "sampler": 0,
      "source": 1
    }
  ]
}