{
  "accessors": [
    {
      "bufferView": 0,
      "componentType": 5126,
      "count": 224,
      "max": [
        0.05156250298023224,
        0.2906250059604645,
        0.051562514156103134
      ],
      "min": [
        -0.05156250298023224,
        -1.4235333765100222e-06,
        -0.05156250298023224
      ],
      "name": "Juice_Apple/POSITION",
      "type": "VEC3"
    },
    {
      "bufferView": 0,
      "byteOffset": 12,
      "componentType": 5126,
      "count": 224,
      "name": "Juice_Apple/NORMAL",
      "type": "VEC3"
    },
    {
      "bufferView": 0,
      "byteOffset": 24,
      "componentType": 5126,
      "count": 224,
      "name": "Juice_Apple/TEXCOORD_0",
      "type": "VEC2"
    },
    {
      "bufferView": 1,
      "componentType": 5125,
      "count": 744,
      "name": "Juice_Apple/INDICES",
      "type": "SCALAR"
    }
  ],
  "asset": {
    "copyright": "Copyright (c) 2018-2020 Chukong Technologies Inc.",
    "generator": "FBX-glTF-conv",
    "version": "2.0"
  },
  "bufferViews": [
    {
      "buffer": 0,
      "byteLength": 7168,
      "byteStride": 32,
      "name": "Juice_Apple",
      "target": 34962
    },
    {
      "buffer": 0,
      "byteLength": 2976,
      "byteOffset": 7168
    }
  ],
  "buffers": [
    {
      "byteLength": 10144,
      "uri": "out.bin"
    }
  ],
  "extras": {
    "FBX-glTF-conv": {
      "animationFrameRate": 24.0
    }
  },
  "meshes": [
    {
      "name": "Juice_Apple",
      "primitives": [
        {
          "attributes": {
            "NORMAL": 1,
            "POSITION": 0,
            "TEXCOORD_0": 2
          },
          "indices": 3
        }
      ]
    }
  ],
  "nodes": [
    {
      "mesh": 0,
      "name": "Juice_Apple"
    }
  ],
  "scenes": [
    {
      "name": "Scene",
      "nodes": [
        0
      ]
    }
  ]
}