{
  "accessors": [
    {
      "bufferView": 0,
      "componentType": 5126,
      "count": 66,
      "max": [
        0.32004252076148987,
        0.3200426399707794,
        0.29342496395111084
      ],
      "min": [
        -0.3200426995754242,
        -0.32004261016845703,
        0.0
      ],
      "name": "Glow/POSITION",
      "type": "VEC3"
    },
    {
      "bufferView": 0,
      "byteOffset": 12,
      "componentType": 5126,
      "count": 66,
      "name": "Glow/NORMAL",
      "type": "VEC3"
    },
    {
      "bufferView": 0,
      "byteOffset": 24,
      "componentType": 5126,
      "count": 66,
      "name": "Glow/TEXCOORD_0",
      "type": "VEC2"
    },
    {
      "bufferView": 1,
      "componentType": 5125,
      "count": 192,
      "name": "Glow/INDICES",
      "type": "SCALAR"
    }
  ],
  "asset": {
    "copyright": "Copyright (c) 2018-2020 Chukong Technologies Inc.",
    "generator": "FBX-glTF-conv",
    "version": "2.0"
  },
  "bufferViews": [
    {
      "buffer": 0,
      "byteLength": 2112,
      "byteStride": 32,
      "name": "Glow",
      "target": 34962
    },
    {
      "buffer": 0,
      "byteLength": 768,
      "byteOffset": 2112
    }
  ],
  "buffers": [
    {
      "byteLength": 2880,
      "uri": "out.bin"
    }
  ],
  "extras": {
    "FBX-glTF-conv": {
      "animationFrameRate": 24.0
    }
  },
  "images": [
    {
      "extras": {
        "FBX-glTF-conv": {
          "fileName": "C:\\Users\\Kenneth\\Documents\\3dsMax\\scenes\\MagicProjectiles\\",
          "relativeFileName": "..\\..\\Kenneth\\Documents\\3dsMax\\scenes\\MagicProjectiles"
        }
      },
      "name": "Map #4",
      "uri": "data:image/png;base64,"
    }
  ],
  "materials": [
    {
      "name": "Material #29",
      "pbrMetallicRoughness": {
        "baseColorTexture": {
          "index": 0
        },
        "metallicFactor": 0.4000000059604645,
        "roughnessFactor": 0.7071067690849304
      }
    }
  ],
  "meshes": [
    {
      "name": "Glow",
      "primitives": [
        {
          "attributes": {
            "NORMAL": 1,
            "POSITION": 0,
            "TEXCOORD_0": 2
          },
          "indices": 3,
          "material": 0
        }
      ]
    }
  ],
  "nodes": [
    {
      "mesh": 0,
      "name": "Glow",
      "rotation": [
        -0.7071067690849304,
        -0.0,
        0.0,
        0.7071067690849304
      ]
    }
  ],
  "samplers": [
    {}
  ],
  "scenes": [
    {
      "nodes": [
        0
      ]
    }
  ],
  "textures": [
    {
      "name": "Map #4",
      "sampler": 0,
      "source": 0
    }
  ]
}