{
  "accessors": [
    {
      "bufferView": 0,
      "componentType": 5126,
      "count": 672,
      "max": [
        10.83174991607666,
        1.7585704326629639,
        22.491722106933594
      ],
      "min": [
        -9.181829452514648,
        -11.478874206542969,
        0.8526481986045837
      ],
      "name": "Scene/POSITION",
      "type": "VEC3"
    },
    {
      "bufferView": 0,
      "byteOffset": 12,
      "componentType": 5126,
      "count": 672,
      "name": "Scene/NORMAL",
      "type": "VEC3"
    },
    {
      "bufferView": 0,
      "byteOffset": 24,
      "componentType": 5126,
      "count": 672,
      "name": "Scene/TEXCOORD_0",
      "type": "VEC2"
    },
    {
      "bufferView": 1,
      "componentType": 5125,
      "count": 1008,
      "name": "Scene/INDICES",
      "type": "SCALAR"
    },
    {
      "bufferView": 2,
      "componentType": 5126,
      "count": 144,
      "max": [
        9.400227546691895,
        -0.5476887226104736,
        -1.0350635051727295
      ],
      "min": [
        -8.895931243896484,
        -11.478854179382324,
        -11.702766418457031
      ],
      "name": "Scene/POSITION",
      "type": "VEC3"
    },
    {
      "bufferView": 2,
      "byteOffset": 12,
      "componentType": 5126,
      "count": 144,
      "name": "Scene/NORMAL",
      "type": "VEC3"
    },
    {
      "bufferView": 2,
      "byteOffset": 24,
      "componentType": 5126,
      "count": 144,
      "name": "Scene/TEXCOORD_0",
      "type": "VEC2"
    },
    {
      "bufferView": 3,
      "componentType": 5125,
      "count": 216,
      "name": "Scene/INDICES",
      "type": "SCALAR"
    },
    {
      "bufferView": 4,
      "componentType": 5126,
      "count": 504,
      "max": [
        10.22496509552002,
        1.7585704326629639,
        -13.126023292541504
      ],
      "min": [
        -8.98915958404541,
        -11.478874206542969,
        -23.47831153869629
      ],
      "name": "Scene/POSITION",
      "type": "VEC3"
    },
    {
      "bufferView": 4,
      "byteOffset": 12,
      "componentType": 5126,
      "count": 504,
      "name": "Scene/NORMAL",
      "type": "VEC3"
    },
    {
      "bufferView": 4,
      "byteOffset": 24,
      "componentType": 5126,
      "count": 504,
      "name": "Scene/TEXCOORD_0",
      "type": "VEC2"
    },
    {
      "bufferView": 5,
      "componentType": 5125,
      "count": 756,
      "name": "Scene/INDICES",
      "type": "SCALAR"
    },
    {
      "bufferView": 6,
      "componentType": 5126,
      "count": 334,
      "max": [
        2.959693431854248,
        0.14929866790771484,
        4.772815704345703
      ],
      "min": [
        -2.959693431854248,
        -11.41193962097168,
        -4.772816181182861
      ],
      "name": "Scene/POSITION",
      "type": "VEC3"
    },
    {
      "bufferView": 6,
      "byteOffset": 12,
      "componentType": 5126,
      "count": 334,
      "name": "Scene/NORMAL",
      "type": "VEC3"
    },
    {
      "bufferView": 6,
      "byteOffset": 24,
      "componentType": 5126,
      "count": 334,
      "name": "Scene/TEXCOORD_0",
      "type": "VEC2"
    },
    {
      "bufferView": 7,
      "componentType": 5125,
      "count": 636,
      "name": "Scene/INDICES",
      "type": "SCALAR"
    },
    {
      "bufferView": 8,
      "componentType": 5126,
      "count": 36,
      "max": [
        2.9037065505981445,
        1.4305696822702885e-06,
        4.707498550415039
      ],
      "min": [
        -2.9037060737609863,
        5.820766091346741e-11,
        -4.7448225021362305
      ],
      "name": "Scene/POSITION",
      "type": "VEC3"
    },
    {
      "bufferView": 8,
      "byteOffset": 12,
      "componentType": 5126,
      "count": 36,
      "name": "Scene/NORMAL",
      "type": "VEC3"
    },
    {
      "bufferView": 8,
      "byteOffset": 24,
      "componentType": 5126,
      "count": 36,
      "name": "Scene/TEXCOORD_0",
      "type": "VEC2"
    },
    {
      "bufferView": 9,
      "componentType": 5125,
      "count": 102,
      "name": "Scene/INDICES",
      "type": "SCALAR"
    },
    {
      "bufferView": 10,
      "componentType": 5126,
      "count": 121,
      "max": [
        5.0,
        1.1102230246251565e-16,
        5.0
      ],
      "min": [
        -5.0,
        -1.1102230246251565e-16,
        -5.0
      ],
      "name": "Scene/POSITION",
      "type": "VEC3"
    },
    {
      "bufferView": 10,
      "byteOffset": 12,
      "componentType": 5126,
      "count": 121,
      "name": "Scene/NORMAL",
      "type": "VEC3"
    },
    {
      "bufferView": 10,
      "byteOffset": 24,
      "componentType": 5126,
      "count": 121,
      "name": "Scene/TEXCOORD_0",
      "type": "VEC2"
    },
    {
      "bufferView": 11,
      "componentType": 5125,
      "count": 600,
      "name": "Scene/INDICES",
      "type": "SCALAR"
    }
  ],
  "asset": {
    "copyright": "Copyright (c) 2018-2020 Chukong Technologies Inc.",
    "generator": "FBX-glTF-conv",
    "version": "2.0"
  },
  "bufferViews": [
    {
      "buffer": 0,
      "byteLength": 21504,
      "byteStride": 32,
      "name": "Scene",
      "target": 34962
    },
    {
      "buffer": 0,
      "byteLength": 4032,
      "byteOffset": 21504
    },
    {
      "buffer": 0,
      "byteLength": 4608,
      "byteOffset": 25536,
      "byteStride": 32,
      "name": "Scene",
      "target": 34962
    },
    {
      "buffer": 0,
      "byteLength": 864,
      "byteOffset": 30144
    },
    {
      "buffer": 0,
      "byteLength": 16128,
      "byteOffset": 31008,
      "byteStride": 32,
      "name": "Scene",
      "target": 34962
    },
    {
      "buffer": 0,
      "byteLength": 3024,
      "byteOffset": 47136
    },
    {
      "buffer": 0,
      "byteLength": 10688,
      "byteOffset": 50160,
      "byteStride": 32,
      "name": "Scene",
      "target": 34962
    },
    {
      "buffer": 0,
      "byteLength": 2544,
      "byteOffset": 60848
    },
    {
      "buffer": 0,
      "byteLength": 1152,
      "byteOffset": 63392,
      "byteStride": 32,
      "name": "Scene",
      "target": 34962
    },
    {
      "buffer": 0,
      "byteLength": 408,
      "byteOffset": 64544
    },
    {
      "buffer": 0,
      "byteLength": 3872,
      "byteOffset": 64952,
      "byteStride": 32,
      "name": "Scene",
      "target": 34962
    },
    {
      "buffer": 0,
      "byteLength": 2400,
      "byteOffset": 68824
    }
  ],
  "buffers": [
    {
      "byteLength": 71224,
      "uri": "out.bin"
    }
  ],
  "extras": {
    "FBX-glTF-conv": {
      "animationFrameRate": 30.0
    }
  },
  "materials": [
    {
      "name": "map_bottom",
      "pbrMetallicRoughness": {
        "baseColorFactor": [
          0.14901961386203766,
          0.4078431725502014,
          0.7137255072593689,
          1.0
        ]
      }
    },
    {
      "name": "map_mid",
      "pbrMetallicRoughness": {
        "baseColorFactor": [
          0.1822267770767212,
          0.38387829065322876,
          0.6132075786590576,
          1.0
        ]
      }
    },
    {
      "name": "map_top",
      "pbrMetallicRoughness": {
        "baseColorFactor": [
          0.3677910566329956,
          0.6083200573921204,
          0.8962264060974121,
          1.0
        ]
      }
    },
    {
      "name": "arena_border",
      "pbrMetallicRoughness": {
        "baseColorFactor": [
          0.5098039507865906,
          0.2039215862751007,
          0.7019608020782471,
          1.0
        ]
      }
    },
    {
      "name": "arena_floor",
      "pbrMetallicRoughness": {
        "baseColorFactor": [
          0.6784313917160034,
          0.6470588445663452,
          0.6196078658103943,
          1.0
        ]
      }
    },
    {
      "name": "Fog_1",
      "pbrMetallicRoughness": {
        "baseColorFactor": [
          0.2823529541492462,
          0.6980392336845398,
          1.0,
          1.0
        ]
      }
    }
  ],
  "meshes": [
    {
      "name": "Scene",
      "primitives": [
        {
          "attributes": {
            "NORMAL": 1,
            "POSITION": 0,
            "TEXCOORD_0": 2
          },
          "indices": 3,
          "material": 0
        }
      ]
    },
    {
      "name": "Scene",
      "primitives": [
        {
          "attributes": {
            "NORMAL": 5,
            "POSITION": 4,
            "TEXCOORD_0": 6
          },
          "indices": 7,
          "material": 1
        }
      ]
    },
    {
      "name": "Scene",
      "primitives": [
        {
          "attributes": {
            "NORMAL": 9,
            "POSITION": 8,
            "TEXCOORD_0": 10
          },
          "indices": 11,
          "material": 2
        }
      ]
    },
    {
      "name": "Scene",
      "primitives": [
        {
          "attributes": {
            "NORMAL": 13,
            "POSITION": 12,
            "TEXCOORD_0": 14
          },
          "indices": 15,
          "material": 3
        }
      ]
    },
    {
      "name": "Scene",
      "primitives": [
        {
          "attributes": {
            "NORMAL": 17,
            "POSITION": 16,
            "TEXCOORD_0": 18
          },
          "indices": 19,
          "material": 4
        }
      ]
    },
    {
      "name": "Scene",
      "primitives": [
        {
          "attributes": {
            "NORMAL": 21,
            "POSITION": 20,
            "TEXCOORD_0": 22
          },
          "indices": 23,
          "material": 5
        }
      ]
    }
  ],
  "nodes": [
    {
      "children": [
        1,
        7
      ],
      "name": "Map1"
    },
    {
      "children": [
        2,
        3,
        4,
        5,
        6
      ],
      "name": "Map1_1",
      "rotation": [
        6.123234262925839e-17,
        1.0,
        6.123234262925839e-17,
        -6.123234262925839e-17
      ],
      "translation": [
        0.0,
        0.0,
        -0.10000000149011612
      ]
    },
    {
      "mesh": 0,
      "name": "building_bg_01_bot",
      "translation": [
        0.0,
        1.7100000381469727,
        0.0
      ]
    },
    {
      "mesh": 1,
      "name": "building_bg_01_mid",
      "translation": [
        0.0,
        1.340000033378601,
        0.0
      ]
    },
    {
      "mesh": 2,
      "name": "building_bg_01_top",
      "translation": [
        0.0,
        0.75,
        0.0
      ]
    },
    {
      "mesh": 3,
      "name": "platform_01"
    },
    {
      "mesh": 4,
      "name": "platform_floor_01"
    },
    {
      "mesh": 5,
      "name": "Fog",
      "rotation": [
        0.0378645621240139,
        0.0,
        0.0,
        0.9992828965187073
      ],
      "scale": [
        100.0,
        100.0,
        100.0
      ],
      "translation": [
        0.0,
        0.41999998688697815,
        -0.03999999910593033
      ]
    }
  ],
  "scenes": [
    {
      "name": "Scene",
      "nodes": [
        0
      ]
    }
  ]
}