{
  "accessors": [
    {
      "bufferView": 0,
      "componentType": 5126,
      "count": 21,
      "max": [
        0.04150081053376198,
        0.11943487077951431,
        0.04243074357509613
      ],
      "min": [
        -0.04150079935789108,
        -0.11943485587835312,
        -0.04242996498942375
      ],
      "name": "shell_rifle/POSITION",
      "type": "VEC3"
    },
    {
      "bufferView": 0,
      "byteOffset": 12,
      "componentType": 5126,
      "count": 21,
      "name": "shell_rifle/NORMAL",
      "type": "VEC3"
    },
    {
      "bufferView": 0,
      "byteOffset": 24,
      "componentType": 5126,
      "count": 21,
      "name": "shell_rifle/TEXCOORD_0",
      "type": "VEC2"
    },
    {
      "bufferView": 0,
      "byteOffset": 32,
      "componentType": 5126,
      "count": 21,
      "name": "shell_rifle/TEXCOORD_1",
      "type": "VEC2"
    },
    {
      "bufferView": 1,
      "componentType": 5125,
      "count": 66,
      "name": "shell_rifle/INDICES",
      "type": "SCALAR"
    }
  ],
  "asset": {
    "copyright": "Copyright (c) 2018-2020 Chukong Technologies Inc.",
    "generator": "FBX-glTF-conv",
    "version": "2.0"
  },
  "bufferViews": [
    {
      "buffer": 0,
      "byteLength": 840,
      "byteStride": 40,
      "name": "shell_rifle",
      "target": 34962
    },
    {
      "buffer": 0,
      "byteLength": 264,
      "byteOffset": 840
    }
  ],
  "buffers": [
    {
      "byteLength": 1104,
      "uri": "out.bin"
    }
  ],
  "extras": {
    "FBX-glTF-conv": {
      "animationFrameRate": 30.0
    }
  },
  "images": [
    {
      "extras": {
        "FBX-glTF-conv": {
          "fileName": "C:\\_Projects\\AssetStore\\ToonSoldiers\\_5_ToonSoldiers_2\\_construct\\NEW\\weapons\\TS_weapons_texture2.psd",
          "relativeFileName": "..\\..\\..\\..\\..\\..\\..\\..\\..\\..\\_Projects\\AssetStore\\ToonSoldiers\\_5_ToonSoldiers_2\\_construct\\NEW\\weapons\\TS_weapons_texture2.psd"
        }
      },
      "name": "Map #18",
      "uri": "data:image/png;base64,"
    }
  ],
  "materials": [
    {
      "name": "ToonSoldiers_weapons",
      "pbrMetallicRoughness": {
        "baseColorTexture": {
          "index": 0
        },
        "metallicFactor": 0.4000000059604645,
        "roughnessFactor": 0.7071067690849304
      }
    }
  ],
  "meshes": [
    {
      "name": "shell_rifle",
      "primitives": [
        {
          "attributes": {
            "NORMAL": 1,
            "POSITION": 0,
            "TEXCOORD_0": 2,
            "TEXCOORD_1": 3
          },
          "indices": 4,
          "material": 0
        }
      ]
    }
  ],
  "nodes": [
    {
      "mesh": 0,
      "name": "shell_rifle",
      "rotation": [
        -0.7071067690849304,
        -0.0,
        0.0,
        0.7071067690849304
      ]
    }
  ],
  "samplers": [
    {}
  ],
  "scenes": [
    {
      "nodes": [
        0
      ]
    }
  ],
  "textures": [
    {
      "name": "Map #18",
      "sampler": 0,
      "source": 0
    }
  ]
}